<?xml version="1.0" encoding="utf-8" standalone="no"?>
<!DOCTYPE svg PUBLIC "-//W3C//DTD SVG 1.1//EN"
  "http://www.w3.org/Graphics/SVG/1.1/DTD/svg11.dtd">
<!-- Created with matplotlib (https://matplotlib.org/) -->
<svg height="576pt" version="1.1" viewBox="0 0 1152 576" width="1152pt" xmlns="http://www.w3.org/2000/svg" xmlns:xlink="http://www.w3.org/1999/xlink">
 <metadata>
  <rdf:RDF xmlns:cc="http://creativecommons.org/ns#" xmlns:dc="http://purl.org/dc/elements/1.1/" xmlns:rdf="http://www.w3.org/1999/02/22-rdf-syntax-ns#">
   <cc:Work>
    <dc:type rdf:resource="http://purl.org/dc/dcmitype/StillImage"/>
    <dc:date>2021-11-20T15:17:36.991252</dc:date>
    <dc:format>image/svg+xml</dc:format>
    <dc:creator>
     <cc:Agent>
      <dc:title>Matplotlib v3.3.4, https://matplotlib.org/</dc:title>
     </cc:Agent>
    </dc:creator>
   </cc:Work>
  </rdf:RDF>
 </metadata>
 <defs>
  <style type="text/css">*{stroke-linecap:butt;stroke-linejoin:round;}</style>
 </defs>
 <g id="figure_1">
  <g id="patch_1">
   <path d="M 0 576 
L 1152 576 
L 1152 0 
L 0 0 
z
" style="fill:none;"/>
  </g>
  <g id="axes_1">
   <g id="patch_2">
    <path d="M 144 504 
L 1036.8 504 
L 1036.8 69.12 
L 144 69.12 
z
" style="fill:#ffffff;"/>
   </g>
   <g id="matplotlib.axis_1">
    <g id="xtick_1">
     <g id="line2d_1">
      <defs>
       <path d="M 0 0 
L 0 3.5 
" id="m6c1a19ee37" style="stroke:#000000;stroke-width:0.8;"/>
      </defs>
      <g>
       <use style="stroke:#000000;stroke-width:0.8;" x="274.763636" xlink:href="#m6c1a19ee37" y="504"/>
      </g>
     </g>
     <g id="text_1">
      <!-- 2012 -->
      <g transform="translate(262.038636 518.598438)scale(0.1 -0.1)">
       <defs>
        <path d="M 19.1875 8.296875 
L 53.609375 8.296875 
L 53.609375 0 
L 7.328125 0 
L 7.328125 8.296875 
Q 12.9375 14.109375 22.625 23.890625 
Q 32.328125 33.6875 34.8125 36.53125 
Q 39.546875 41.84375 41.421875 45.53125 
Q 43.3125 49.21875 43.3125 52.78125 
Q 43.3125 58.59375 39.234375 62.25 
Q 35.15625 65.921875 28.609375 65.921875 
Q 23.96875 65.921875 18.8125 64.3125 
Q 13.671875 62.703125 7.8125 59.421875 
L 7.8125 69.390625 
Q 13.765625 71.78125 18.9375 73 
Q 24.125 74.21875 28.421875 74.21875 
Q 39.75 74.21875 46.484375 68.546875 
Q 53.21875 62.890625 53.21875 53.421875 
Q 53.21875 48.921875 51.53125 44.890625 
Q 49.859375 40.875 45.40625 35.40625 
Q 44.1875 33.984375 37.640625 27.21875 
Q 31.109375 20.453125 19.1875 8.296875 
z
" id="DejaVuSans-50"/>
        <path d="M 31.78125 66.40625 
Q 24.171875 66.40625 20.328125 58.90625 
Q 16.5 51.421875 16.5 36.375 
Q 16.5 21.390625 20.328125 13.890625 
Q 24.171875 6.390625 31.78125 6.390625 
Q 39.453125 6.390625 43.28125 13.890625 
Q 47.125 21.390625 47.125 36.375 
Q 47.125 51.421875 43.28125 58.90625 
Q 39.453125 66.40625 31.78125 66.40625 
z
M 31.78125 74.21875 
Q 44.046875 74.21875 50.515625 64.515625 
Q 56.984375 54.828125 56.984375 36.375 
Q 56.984375 17.96875 50.515625 8.265625 
Q 44.046875 -1.421875 31.78125 -1.421875 
Q 19.53125 -1.421875 13.0625 8.265625 
Q 6.59375 17.96875 6.59375 36.375 
Q 6.59375 54.828125 13.0625 64.515625 
Q 19.53125 74.21875 31.78125 74.21875 
z
" id="DejaVuSans-48"/>
        <path d="M 12.40625 8.296875 
L 28.515625 8.296875 
L 28.515625 63.921875 
L 10.984375 60.40625 
L 10.984375 69.390625 
L 28.421875 72.90625 
L 38.28125 72.90625 
L 38.28125 8.296875 
L 54.390625 8.296875 
L 54.390625 0 
L 12.40625 0 
z
" id="DejaVuSans-49"/>
       </defs>
       <use xlink:href="#DejaVuSans-50"/>
       <use x="63.623047" xlink:href="#DejaVuSans-48"/>
       <use x="127.246094" xlink:href="#DejaVuSans-49"/>
       <use x="190.869141" xlink:href="#DejaVuSans-50"/>
      </g>
     </g>
    </g>
    <g id="xtick_2">
     <g id="line2d_2">
      <g>
       <use style="stroke:#000000;stroke-width:0.8;" x="455.127273" xlink:href="#m6c1a19ee37" y="504"/>
      </g>
     </g>
     <g id="text_2">
      <!-- 2014 -->
      <g transform="translate(442.402273 518.598438)scale(0.1 -0.1)">
       <defs>
        <path d="M 37.796875 64.3125 
L 12.890625 25.390625 
L 37.796875 25.390625 
z
M 35.203125 72.90625 
L 47.609375 72.90625 
L 47.609375 25.390625 
L 58.015625 25.390625 
L 58.015625 17.1875 
L 47.609375 17.1875 
L 47.609375 0 
L 37.796875 0 
L 37.796875 17.1875 
L 4.890625 17.1875 
L 4.890625 26.703125 
z
" id="DejaVuSans-52"/>
       </defs>
       <use xlink:href="#DejaVuSans-50"/>
       <use x="63.623047" xlink:href="#DejaVuSans-48"/>
       <use x="127.246094" xlink:href="#DejaVuSans-49"/>
       <use x="190.869141" xlink:href="#DejaVuSans-52"/>
      </g>
     </g>
    </g>
    <g id="xtick_3">
     <g id="line2d_3">
      <g>
       <use style="stroke:#000000;stroke-width:0.8;" x="635.490909" xlink:href="#m6c1a19ee37" y="504"/>
      </g>
     </g>
     <g id="text_3">
      <!-- 2016 -->
      <g transform="translate(622.765909 518.598438)scale(0.1 -0.1)">
       <defs>
        <path d="M 33.015625 40.375 
Q 26.375 40.375 22.484375 35.828125 
Q 18.609375 31.296875 18.609375 23.390625 
Q 18.609375 15.53125 22.484375 10.953125 
Q 26.375 6.390625 33.015625 6.390625 
Q 39.65625 6.390625 43.53125 10.953125 
Q 47.40625 15.53125 47.40625 23.390625 
Q 47.40625 31.296875 43.53125 35.828125 
Q 39.65625 40.375 33.015625 40.375 
z
M 52.59375 71.296875 
L 52.59375 62.3125 
Q 48.875 64.0625 45.09375 64.984375 
Q 41.3125 65.921875 37.59375 65.921875 
Q 27.828125 65.921875 22.671875 59.328125 
Q 17.53125 52.734375 16.796875 39.40625 
Q 19.671875 43.65625 24.015625 45.921875 
Q 28.375 48.1875 33.59375 48.1875 
Q 44.578125 48.1875 50.953125 41.515625 
Q 57.328125 34.859375 57.328125 23.390625 
Q 57.328125 12.15625 50.6875 5.359375 
Q 44.046875 -1.421875 33.015625 -1.421875 
Q 20.359375 -1.421875 13.671875 8.265625 
Q 6.984375 17.96875 6.984375 36.375 
Q 6.984375 53.65625 15.1875 63.9375 
Q 23.390625 74.21875 37.203125 74.21875 
Q 40.921875 74.21875 44.703125 73.484375 
Q 48.484375 72.75 52.59375 71.296875 
z
" id="DejaVuSans-54"/>
       </defs>
       <use xlink:href="#DejaVuSans-50"/>
       <use x="63.623047" xlink:href="#DejaVuSans-48"/>
       <use x="127.246094" xlink:href="#DejaVuSans-49"/>
       <use x="190.869141" xlink:href="#DejaVuSans-54"/>
      </g>
     </g>
    </g>
    <g id="xtick_4">
     <g id="line2d_4">
      <g>
       <use style="stroke:#000000;stroke-width:0.8;" x="815.854545" xlink:href="#m6c1a19ee37" y="504"/>
      </g>
     </g>
     <g id="text_4">
      <!-- 2018 -->
      <g transform="translate(803.129545 518.598438)scale(0.1 -0.1)">
       <defs>
        <path d="M 31.78125 34.625 
Q 24.75 34.625 20.71875 30.859375 
Q 16.703125 27.09375 16.703125 20.515625 
Q 16.703125 13.921875 20.71875 10.15625 
Q 24.75 6.390625 31.78125 6.390625 
Q 38.8125 6.390625 42.859375 10.171875 
Q 46.921875 13.96875 46.921875 20.515625 
Q 46.921875 27.09375 42.890625 30.859375 
Q 38.875 34.625 31.78125 34.625 
z
M 21.921875 38.8125 
Q 15.578125 40.375 12.03125 44.71875 
Q 8.5 49.078125 8.5 55.328125 
Q 8.5 64.0625 14.71875 69.140625 
Q 20.953125 74.21875 31.78125 74.21875 
Q 42.671875 74.21875 48.875 69.140625 
Q 55.078125 64.0625 55.078125 55.328125 
Q 55.078125 49.078125 51.53125 44.71875 
Q 48 40.375 41.703125 38.8125 
Q 48.828125 37.15625 52.796875 32.3125 
Q 56.78125 27.484375 56.78125 20.515625 
Q 56.78125 9.90625 50.3125 4.234375 
Q 43.84375 -1.421875 31.78125 -1.421875 
Q 19.734375 -1.421875 13.25 4.234375 
Q 6.78125 9.90625 6.78125 20.515625 
Q 6.78125 27.484375 10.78125 32.3125 
Q 14.796875 37.15625 21.921875 38.8125 
z
M 18.3125 54.390625 
Q 18.3125 48.734375 21.84375 45.5625 
Q 25.390625 42.390625 31.78125 42.390625 
Q 38.140625 42.390625 41.71875 45.5625 
Q 45.3125 48.734375 45.3125 54.390625 
Q 45.3125 60.0625 41.71875 63.234375 
Q 38.140625 66.40625 31.78125 66.40625 
Q 25.390625 66.40625 21.84375 63.234375 
Q 18.3125 60.0625 18.3125 54.390625 
z
" id="DejaVuSans-56"/>
       </defs>
       <use xlink:href="#DejaVuSans-50"/>
       <use x="63.623047" xlink:href="#DejaVuSans-48"/>
       <use x="127.246094" xlink:href="#DejaVuSans-49"/>
       <use x="190.869141" xlink:href="#DejaVuSans-56"/>
      </g>
     </g>
    </g>
    <g id="xtick_5">
     <g id="line2d_5">
      <g>
       <use style="stroke:#000000;stroke-width:0.8;" x="996.218182" xlink:href="#m6c1a19ee37" y="504"/>
      </g>
     </g>
     <g id="text_5">
      <!-- 2020 -->
      <g transform="translate(983.493182 518.598438)scale(0.1 -0.1)">
       <use xlink:href="#DejaVuSans-50"/>
       <use x="63.623047" xlink:href="#DejaVuSans-48"/>
       <use x="127.246094" xlink:href="#DejaVuSans-50"/>
       <use x="190.869141" xlink:href="#DejaVuSans-48"/>
      </g>
     </g>
    </g>
    <g id="text_6">
     <!-- Year -->
     <g transform="translate(571.807031 536.075781)scale(0.15 -0.15)">
      <defs>
       <path d="M -0.984375 72.90625 
L 19.578125 72.90625 
L 36.1875 46.921875 
L 52.78125 72.90625 
L 73.390625 72.90625 
L 45.609375 30.71875 
L 45.609375 0 
L 26.8125 0 
L 26.8125 30.71875 
z
" id="DejaVuSans-Bold-89"/>
       <path d="M 62.984375 27.484375 
L 62.984375 22.515625 
L 22.125 22.515625 
Q 22.75 16.359375 26.5625 13.28125 
Q 30.375 10.203125 37.203125 10.203125 
Q 42.71875 10.203125 48.5 11.84375 
Q 54.296875 13.484375 60.40625 16.796875 
L 60.40625 3.328125 
Q 54.203125 0.984375 48 -0.21875 
Q 41.796875 -1.421875 35.59375 -1.421875 
Q 20.75 -1.421875 12.515625 6.125 
Q 4.296875 13.671875 4.296875 27.296875 
Q 4.296875 40.671875 12.375 48.328125 
Q 20.453125 56 34.625 56 
Q 47.515625 56 55.25 48.234375 
Q 62.984375 40.484375 62.984375 27.484375 
z
M 45.015625 33.296875 
Q 45.015625 38.28125 42.109375 41.328125 
Q 39.203125 44.390625 34.515625 44.390625 
Q 29.4375 44.390625 26.265625 41.53125 
Q 23.09375 38.671875 22.3125 33.296875 
z
" id="DejaVuSans-Bold-101"/>
       <path d="M 32.90625 24.609375 
Q 27.4375 24.609375 24.671875 22.75 
Q 21.921875 20.90625 21.921875 17.28125 
Q 21.921875 13.96875 24.140625 12.078125 
Q 26.375 10.203125 30.328125 10.203125 
Q 35.25 10.203125 38.625 13.734375 
Q 42 17.28125 42 22.609375 
L 42 24.609375 
z
M 59.625 31.203125 
L 59.625 0 
L 42 0 
L 42 8.109375 
Q 38.484375 3.125 34.078125 0.84375 
Q 29.6875 -1.421875 23.390625 -1.421875 
Q 14.890625 -1.421875 9.59375 3.53125 
Q 4.296875 8.5 4.296875 16.40625 
Q 4.296875 26.03125 10.90625 30.515625 
Q 17.53125 35.015625 31.6875 35.015625 
L 42 35.015625 
L 42 36.375 
Q 42 40.53125 38.71875 42.453125 
Q 35.453125 44.390625 28.515625 44.390625 
Q 22.90625 44.390625 18.0625 43.265625 
Q 13.234375 42.140625 9.078125 39.890625 
L 9.078125 53.21875 
Q 14.703125 54.59375 20.359375 55.296875 
Q 26.03125 56 31.6875 56 
Q 46.484375 56 53.046875 50.171875 
Q 59.625 44.34375 59.625 31.203125 
z
" id="DejaVuSans-Bold-97"/>
       <path d="M 49.03125 39.796875 
Q 46.734375 40.875 44.453125 41.375 
Q 42.1875 41.890625 39.890625 41.890625 
Q 33.15625 41.890625 29.515625 37.5625 
Q 25.875 33.25 25.875 25.203125 
L 25.875 0 
L 8.40625 0 
L 8.40625 54.6875 
L 25.875 54.6875 
L 25.875 45.703125 
Q 29.25 51.078125 33.609375 53.53125 
Q 37.984375 56 44.09375 56 
Q 44.96875 56 45.984375 55.921875 
Q 47.015625 55.859375 48.96875 55.609375 
z
" id="DejaVuSans-Bold-114"/>
      </defs>
      <use xlink:href="#DejaVuSans-Bold-89"/>
      <use x="63.287109" xlink:href="#DejaVuSans-Bold-101"/>
      <use x="131.109375" xlink:href="#DejaVuSans-Bold-97"/>
      <use x="198.589844" xlink:href="#DejaVuSans-Bold-114"/>
     </g>
    </g>
   </g>
   <g id="matplotlib.axis_2">
    <g id="ytick_1">
     <g id="line2d_6">
      <defs>
       <path d="M 0 0 
L -3.5 0 
" id="m301f672a69" style="stroke:#000000;stroke-width:0.8;"/>
      </defs>
      <g>
       <use style="stroke:#000000;stroke-width:0.8;" x="144" xlink:href="#m301f672a69" y="486.983769"/>
      </g>
     </g>
     <g id="text_7">
      <!-- 0 -->
      <g transform="translate(130.6375 490.782988)scale(0.1 -0.1)">
       <use xlink:href="#DejaVuSans-48"/>
      </g>
     </g>
    </g>
    <g id="ytick_2">
     <g id="line2d_7">
      <g>
       <use style="stroke:#000000;stroke-width:0.8;" x="144" xlink:href="#m301f672a69" y="435.077322"/>
      </g>
     </g>
     <g id="text_8">
      <!-- 2000 -->
      <g transform="translate(111.55 438.876541)scale(0.1 -0.1)">
       <use xlink:href="#DejaVuSans-50"/>
       <use x="63.623047" xlink:href="#DejaVuSans-48"/>
       <use x="127.246094" xlink:href="#DejaVuSans-48"/>
       <use x="190.869141" xlink:href="#DejaVuSans-48"/>
      </g>
     </g>
    </g>
    <g id="ytick_3">
     <g id="line2d_8">
      <g>
       <use style="stroke:#000000;stroke-width:0.8;" x="144" xlink:href="#m301f672a69" y="383.170875"/>
      </g>
     </g>
     <g id="text_9">
      <!-- 4000 -->
      <g transform="translate(111.55 386.970093)scale(0.1 -0.1)">
       <use xlink:href="#DejaVuSans-52"/>
       <use x="63.623047" xlink:href="#DejaVuSans-48"/>
       <use x="127.246094" xlink:href="#DejaVuSans-48"/>
       <use x="190.869141" xlink:href="#DejaVuSans-48"/>
      </g>
     </g>
    </g>
    <g id="ytick_4">
     <g id="line2d_9">
      <g>
       <use style="stroke:#000000;stroke-width:0.8;" x="144" xlink:href="#m301f672a69" y="331.264428"/>
      </g>
     </g>
     <g id="text_10">
      <!-- 6000 -->
      <g transform="translate(111.55 335.063646)scale(0.1 -0.1)">
       <use xlink:href="#DejaVuSans-54"/>
       <use x="63.623047" xlink:href="#DejaVuSans-48"/>
       <use x="127.246094" xlink:href="#DejaVuSans-48"/>
       <use x="190.869141" xlink:href="#DejaVuSans-48"/>
      </g>
     </g>
    </g>
    <g id="ytick_5">
     <g id="line2d_10">
      <g>
       <use style="stroke:#000000;stroke-width:0.8;" x="144" xlink:href="#m301f672a69" y="279.35798"/>
      </g>
     </g>
     <g id="text_11">
      <!-- 8000 -->
      <g transform="translate(111.55 283.157199)scale(0.1 -0.1)">
       <use xlink:href="#DejaVuSans-56"/>
       <use x="63.623047" xlink:href="#DejaVuSans-48"/>
       <use x="127.246094" xlink:href="#DejaVuSans-48"/>
       <use x="190.869141" xlink:href="#DejaVuSans-48"/>
      </g>
     </g>
    </g>
    <g id="ytick_6">
     <g id="line2d_11">
      <g>
       <use style="stroke:#000000;stroke-width:0.8;" x="144" xlink:href="#m301f672a69" y="227.451533"/>
      </g>
     </g>
     <g id="text_12">
      <!-- 10000 -->
      <g transform="translate(105.1875 231.250752)scale(0.1 -0.1)">
       <use xlink:href="#DejaVuSans-49"/>
       <use x="63.623047" xlink:href="#DejaVuSans-48"/>
       <use x="127.246094" xlink:href="#DejaVuSans-48"/>
       <use x="190.869141" xlink:href="#DejaVuSans-48"/>
       <use x="254.492188" xlink:href="#DejaVuSans-48"/>
      </g>
     </g>
    </g>
    <g id="ytick_7">
     <g id="line2d_12">
      <g>
       <use style="stroke:#000000;stroke-width:0.8;" x="144" xlink:href="#m301f672a69" y="175.545086"/>
      </g>
     </g>
     <g id="text_13">
      <!-- 12000 -->
      <g transform="translate(105.1875 179.344305)scale(0.1 -0.1)">
       <use xlink:href="#DejaVuSans-49"/>
       <use x="63.623047" xlink:href="#DejaVuSans-50"/>
       <use x="127.246094" xlink:href="#DejaVuSans-48"/>
       <use x="190.869141" xlink:href="#DejaVuSans-48"/>
       <use x="254.492188" xlink:href="#DejaVuSans-48"/>
      </g>
     </g>
    </g>
    <g id="ytick_8">
     <g id="line2d_13">
      <g>
       <use style="stroke:#000000;stroke-width:0.8;" x="144" xlink:href="#m301f672a69" y="123.638639"/>
      </g>
     </g>
     <g id="text_14">
      <!-- 14000 -->
      <g transform="translate(105.1875 127.437858)scale(0.1 -0.1)">
       <use xlink:href="#DejaVuSans-49"/>
       <use x="63.623047" xlink:href="#DejaVuSans-52"/>
       <use x="127.246094" xlink:href="#DejaVuSans-48"/>
       <use x="190.869141" xlink:href="#DejaVuSans-48"/>
       <use x="254.492188" xlink:href="#DejaVuSans-48"/>
      </g>
     </g>
    </g>
    <g id="ytick_9">
     <g id="line2d_14">
      <g>
       <use style="stroke:#000000;stroke-width:0.8;" x="144" xlink:href="#m301f672a69" y="71.732192"/>
      </g>
     </g>
     <g id="text_15">
      <!-- 16000 -->
      <g transform="translate(105.1875 75.531411)scale(0.1 -0.1)">
       <use xlink:href="#DejaVuSans-49"/>
       <use x="63.623047" xlink:href="#DejaVuSans-54"/>
       <use x="127.246094" xlink:href="#DejaVuSans-48"/>
       <use x="190.869141" xlink:href="#DejaVuSans-48"/>
       <use x="254.492188" xlink:href="#DejaVuSans-48"/>
      </g>
     </g>
    </g>
    <g id="text_16">
     <!-- publications -->
     <g transform="translate(98.067969 338.396719)rotate(-90)scale(0.15 -0.15)">
      <defs>
       <path d="M 25.875 7.90625 
L 25.875 -20.796875 
L 8.40625 -20.796875 
L 8.40625 54.6875 
L 25.875 54.6875 
L 25.875 46.6875 
Q 29.5 51.46875 33.890625 53.734375 
Q 38.28125 56 44 56 
Q 54.109375 56 60.59375 47.96875 
Q 67.09375 39.9375 67.09375 27.296875 
Q 67.09375 14.65625 60.59375 6.609375 
Q 54.109375 -1.421875 44 -1.421875 
Q 38.28125 -1.421875 33.890625 0.84375 
Q 29.5 3.125 25.875 7.90625 
z
M 37.5 43.3125 
Q 31.890625 43.3125 28.875 39.1875 
Q 25.875 35.0625 25.875 27.296875 
Q 25.875 19.53125 28.875 15.40625 
Q 31.890625 11.28125 37.5 11.28125 
Q 43.109375 11.28125 46.0625 15.375 
Q 49.03125 19.484375 49.03125 27.296875 
Q 49.03125 35.109375 46.0625 39.203125 
Q 43.109375 43.3125 37.5 43.3125 
z
" id="DejaVuSans-Bold-112"/>
       <path d="M 7.8125 21.296875 
L 7.8125 54.6875 
L 25.390625 54.6875 
L 25.390625 49.21875 
Q 25.390625 44.78125 25.34375 38.0625 
Q 25.296875 31.34375 25.296875 29.109375 
Q 25.296875 22.515625 25.640625 19.609375 
Q 25.984375 16.703125 26.8125 15.375 
Q 27.875 13.671875 29.609375 12.734375 
Q 31.34375 11.8125 33.59375 11.8125 
Q 39.0625 11.8125 42.1875 16.015625 
Q 45.3125 20.21875 45.3125 27.6875 
L 45.3125 54.6875 
L 62.796875 54.6875 
L 62.796875 0 
L 45.3125 0 
L 45.3125 7.90625 
Q 41.359375 3.125 36.9375 0.84375 
Q 32.515625 -1.421875 27.203125 -1.421875 
Q 17.71875 -1.421875 12.765625 4.390625 
Q 7.8125 10.203125 7.8125 21.296875 
z
" id="DejaVuSans-Bold-117"/>
       <path d="M 37.5 11.28125 
Q 43.109375 11.28125 46.0625 15.375 
Q 49.03125 19.484375 49.03125 27.296875 
Q 49.03125 35.109375 46.0625 39.203125 
Q 43.109375 43.3125 37.5 43.3125 
Q 31.890625 43.3125 28.875 39.1875 
Q 25.875 35.0625 25.875 27.296875 
Q 25.875 19.53125 28.875 15.40625 
Q 31.890625 11.28125 37.5 11.28125 
z
M 25.875 46.6875 
Q 29.5 51.46875 33.890625 53.734375 
Q 38.28125 56 44 56 
Q 54.109375 56 60.59375 47.96875 
Q 67.09375 39.9375 67.09375 27.296875 
Q 67.09375 14.65625 60.59375 6.609375 
Q 54.109375 -1.421875 44 -1.421875 
Q 38.28125 -1.421875 33.890625 0.84375 
Q 29.5 3.125 25.875 7.90625 
L 25.875 0 
L 8.40625 0 
L 8.40625 75.984375 
L 25.875 75.984375 
z
" id="DejaVuSans-Bold-98"/>
       <path d="M 8.40625 75.984375 
L 25.875 75.984375 
L 25.875 0 
L 8.40625 0 
z
" id="DejaVuSans-Bold-108"/>
       <path d="M 8.40625 54.6875 
L 25.875 54.6875 
L 25.875 0 
L 8.40625 0 
z
M 8.40625 75.984375 
L 25.875 75.984375 
L 25.875 61.71875 
L 8.40625 61.71875 
z
" id="DejaVuSans-Bold-105"/>
       <path d="M 52.59375 52.984375 
L 52.59375 38.71875 
Q 49.03125 41.15625 45.4375 42.328125 
Q 41.84375 43.5 37.984375 43.5 
Q 30.671875 43.5 26.59375 39.234375 
Q 22.515625 34.96875 22.515625 27.296875 
Q 22.515625 19.625 26.59375 15.34375 
Q 30.671875 11.078125 37.984375 11.078125 
Q 42.09375 11.078125 45.78125 12.296875 
Q 49.46875 13.53125 52.59375 15.921875 
L 52.59375 1.609375 
Q 48.484375 0.09375 44.265625 -0.65625 
Q 40.046875 -1.421875 35.796875 -1.421875 
Q 21 -1.421875 12.640625 6.171875 
Q 4.296875 13.765625 4.296875 27.296875 
Q 4.296875 40.828125 12.640625 48.40625 
Q 21 56 35.796875 56 
Q 40.09375 56 44.265625 55.25 
Q 48.4375 54.5 52.59375 52.984375 
z
" id="DejaVuSans-Bold-99"/>
       <path d="M 27.484375 70.21875 
L 27.484375 54.6875 
L 45.515625 54.6875 
L 45.515625 42.1875 
L 27.484375 42.1875 
L 27.484375 19 
Q 27.484375 15.1875 29 13.84375 
Q 30.515625 12.5 35.015625 12.5 
L 44 12.5 
L 44 0 
L 29 0 
Q 18.65625 0 14.328125 4.3125 
Q 10.015625 8.640625 10.015625 19 
L 10.015625 42.1875 
L 1.3125 42.1875 
L 1.3125 54.6875 
L 10.015625 54.6875 
L 10.015625 70.21875 
z
" id="DejaVuSans-Bold-116"/>
       <path d="M 34.421875 43.5 
Q 28.609375 43.5 25.5625 39.328125 
Q 22.515625 35.15625 22.515625 27.296875 
Q 22.515625 19.4375 25.5625 15.25 
Q 28.609375 11.078125 34.421875 11.078125 
Q 40.140625 11.078125 43.15625 15.25 
Q 46.1875 19.4375 46.1875 27.296875 
Q 46.1875 35.15625 43.15625 39.328125 
Q 40.140625 43.5 34.421875 43.5 
z
M 34.421875 56 
Q 48.53125 56 56.46875 48.375 
Q 64.40625 40.765625 64.40625 27.296875 
Q 64.40625 13.8125 56.46875 6.1875 
Q 48.53125 -1.421875 34.421875 -1.421875 
Q 20.265625 -1.421875 12.28125 6.1875 
Q 4.296875 13.8125 4.296875 27.296875 
Q 4.296875 40.765625 12.28125 48.375 
Q 20.265625 56 34.421875 56 
z
" id="DejaVuSans-Bold-111"/>
       <path d="M 63.375 33.296875 
L 63.375 0 
L 45.796875 0 
L 45.796875 5.421875 
L 45.796875 25.484375 
Q 45.796875 32.5625 45.484375 35.25 
Q 45.171875 37.9375 44.390625 39.203125 
Q 43.359375 40.921875 41.59375 41.875 
Q 39.84375 42.828125 37.59375 42.828125 
Q 32.125 42.828125 29 38.59375 
Q 25.875 34.375 25.875 26.90625 
L 25.875 0 
L 8.40625 0 
L 8.40625 54.6875 
L 25.875 54.6875 
L 25.875 46.6875 
Q 29.828125 51.46875 34.265625 53.734375 
Q 38.71875 56 44.09375 56 
Q 53.5625 56 58.46875 50.1875 
Q 63.375 44.390625 63.375 33.296875 
z
" id="DejaVuSans-Bold-110"/>
       <path d="M 51.125 52.984375 
L 51.125 39.703125 
Q 45.515625 42.046875 40.28125 43.21875 
Q 35.0625 44.390625 30.421875 44.390625 
Q 25.4375 44.390625 23.015625 43.140625 
Q 20.609375 41.890625 20.609375 39.3125 
Q 20.609375 37.203125 22.4375 36.078125 
Q 24.265625 34.96875 29 34.421875 
L 32.078125 33.984375 
Q 45.515625 32.28125 50.140625 28.375 
Q 54.78125 24.46875 54.78125 16.109375 
Q 54.78125 7.375 48.328125 2.96875 
Q 41.890625 -1.421875 29.109375 -1.421875 
Q 23.6875 -1.421875 17.890625 -0.5625 
Q 12.109375 0.296875 6 2 
L 6 15.28125 
Q 11.234375 12.75 16.71875 11.46875 
Q 22.21875 10.203125 27.875 10.203125 
Q 33.015625 10.203125 35.59375 11.609375 
Q 38.1875 13.03125 38.1875 15.828125 
Q 38.1875 18.171875 36.40625 19.3125 
Q 34.625 20.453125 29.296875 21.09375 
L 26.21875 21.484375 
Q 14.546875 22.953125 9.859375 26.90625 
Q 5.171875 30.859375 5.171875 38.921875 
Q 5.171875 47.609375 11.125 51.796875 
Q 17.09375 56 29.390625 56 
Q 34.234375 56 39.546875 55.265625 
Q 44.875 54.546875 51.125 52.984375 
z
" id="DejaVuSans-Bold-115"/>
      </defs>
      <use xlink:href="#DejaVuSans-Bold-112"/>
      <use x="71.582031" xlink:href="#DejaVuSans-Bold-117"/>
      <use x="142.773438" xlink:href="#DejaVuSans-Bold-98"/>
      <use x="214.355469" xlink:href="#DejaVuSans-Bold-108"/>
      <use x="248.632812" xlink:href="#DejaVuSans-Bold-105"/>
      <use x="282.910156" xlink:href="#DejaVuSans-Bold-99"/>
      <use x="342.1875" xlink:href="#DejaVuSans-Bold-97"/>
      <use x="409.667969" xlink:href="#DejaVuSans-Bold-116"/>
      <use x="457.470703" xlink:href="#DejaVuSans-Bold-105"/>
      <use x="491.748047" xlink:href="#DejaVuSans-Bold-111"/>
      <use x="560.449219" xlink:href="#DejaVuSans-Bold-110"/>
      <use x="631.640625" xlink:href="#DejaVuSans-Bold-115"/>
     </g>
    </g>
   </g>
   <g id="line2d_15">
    <path clip-path="url(#pd422177aee)" d="M 996.218182 479.405428 
L 906.036364 479.976399 
L 815.854545 480.287837 
L 725.672727 481.455732 
L 635.490909 481.507639 
L 545.309091 481.27406 
L 455.127273 482.026703 
L 364.945455 482.441955 
L 274.763636 482.260282 
L 184.581818 482.441955 
" style="fill:none;stroke:#008000;stroke-linecap:square;stroke-width:1.5;"/>
    <defs>
     <path d="M 0 1.5 
C 0.397805 1.5 0.77937 1.341951 1.06066 1.06066 
C 1.341951 0.77937 1.5 0.397805 1.5 0 
C 1.5 -0.397805 1.341951 -0.77937 1.06066 -1.06066 
C 0.77937 -1.341951 0.397805 -1.5 0 -1.5 
C -0.397805 -1.5 -0.77937 -1.341951 -1.06066 -1.06066 
C -1.341951 -0.77937 -1.5 -0.397805 -1.5 0 
C -1.5 0.397805 -1.341951 0.77937 -1.06066 1.06066 
C -0.77937 1.341951 -0.397805 1.5 0 1.5 
z
" id="m4c5c52dec2" style="stroke:#008000;"/>
    </defs>
    <g clip-path="url(#pd422177aee)">
     <use style="fill:#008000;stroke:#008000;" x="996.218182" xlink:href="#m4c5c52dec2" y="479.405428"/>
     <use style="fill:#008000;stroke:#008000;" x="906.036364" xlink:href="#m4c5c52dec2" y="479.976399"/>
     <use style="fill:#008000;stroke:#008000;" x="815.854545" xlink:href="#m4c5c52dec2" y="480.287837"/>
     <use style="fill:#008000;stroke:#008000;" x="725.672727" xlink:href="#m4c5c52dec2" y="481.455732"/>
     <use style="fill:#008000;stroke:#008000;" x="635.490909" xlink:href="#m4c5c52dec2" y="481.507639"/>
     <use style="fill:#008000;stroke:#008000;" x="545.309091" xlink:href="#m4c5c52dec2" y="481.27406"/>
     <use style="fill:#008000;stroke:#008000;" x="455.127273" xlink:href="#m4c5c52dec2" y="482.026703"/>
     <use style="fill:#008000;stroke:#008000;" x="364.945455" xlink:href="#m4c5c52dec2" y="482.441955"/>
     <use style="fill:#008000;stroke:#008000;" x="274.763636" xlink:href="#m4c5c52dec2" y="482.260282"/>
     <use style="fill:#008000;stroke:#008000;" x="184.581818" xlink:href="#m4c5c52dec2" y="482.441955"/>
    </g>
   </g>
   <g id="line2d_16">
    <path clip-path="url(#pd422177aee)" d="M 996.218182 473.565952 
L 906.036364 476.60248 
L 815.854545 475.927696 
L 725.672727 479.093989 
L 635.490909 478.912316 
L 545.309091 479.5871 
L 455.127273 479.794726 
L 364.945455 480.313791 
L 274.763636 479.898539 
L 184.581818 480.651182 
" style="fill:none;stroke:#008000;stroke-linecap:square;stroke-width:1.5;"/>
    <g clip-path="url(#pd422177aee)">
     <use style="fill:#008000;stroke:#008000;" x="996.218182" xlink:href="#m4c5c52dec2" y="473.565952"/>
     <use style="fill:#008000;stroke:#008000;" x="906.036364" xlink:href="#m4c5c52dec2" y="476.60248"/>
     <use style="fill:#008000;stroke:#008000;" x="815.854545" xlink:href="#m4c5c52dec2" y="475.927696"/>
     <use style="fill:#008000;stroke:#008000;" x="725.672727" xlink:href="#m4c5c52dec2" y="479.093989"/>
     <use style="fill:#008000;stroke:#008000;" x="635.490909" xlink:href="#m4c5c52dec2" y="478.912316"/>
     <use style="fill:#008000;stroke:#008000;" x="545.309091" xlink:href="#m4c5c52dec2" y="479.5871"/>
     <use style="fill:#008000;stroke:#008000;" x="455.127273" xlink:href="#m4c5c52dec2" y="479.794726"/>
     <use style="fill:#008000;stroke:#008000;" x="364.945455" xlink:href="#m4c5c52dec2" y="480.313791"/>
     <use style="fill:#008000;stroke:#008000;" x="274.763636" xlink:href="#m4c5c52dec2" y="479.898539"/>
     <use style="fill:#008000;stroke:#008000;" x="184.581818" xlink:href="#m4c5c52dec2" y="480.651182"/>
    </g>
   </g>
   <g id="line2d_17">
    <path clip-path="url(#pd422177aee)" d="M 996.218182 460.096229 
L 906.036364 464.274698 
L 815.854545 466.29905 
L 725.672727 463.80754 
L 635.490909 466.428816 
L 545.309091 469.569156 
L 455.127273 472.346151 
L 364.945455 474.214783 
L 274.763636 476.654386 
L 184.581818 478.912316 
" style="fill:none;stroke:#008000;stroke-linecap:square;stroke-width:1.5;"/>
    <g clip-path="url(#pd422177aee)">
     <use style="fill:#008000;stroke:#008000;" x="996.218182" xlink:href="#m4c5c52dec2" y="460.096229"/>
     <use style="fill:#008000;stroke:#008000;" x="906.036364" xlink:href="#m4c5c52dec2" y="464.274698"/>
     <use style="fill:#008000;stroke:#008000;" x="815.854545" xlink:href="#m4c5c52dec2" y="466.29905"/>
     <use style="fill:#008000;stroke:#008000;" x="725.672727" xlink:href="#m4c5c52dec2" y="463.80754"/>
     <use style="fill:#008000;stroke:#008000;" x="635.490909" xlink:href="#m4c5c52dec2" y="466.428816"/>
     <use style="fill:#008000;stroke:#008000;" x="545.309091" xlink:href="#m4c5c52dec2" y="469.569156"/>
     <use style="fill:#008000;stroke:#008000;" x="455.127273" xlink:href="#m4c5c52dec2" y="472.346151"/>
     <use style="fill:#008000;stroke:#008000;" x="364.945455" xlink:href="#m4c5c52dec2" y="474.214783"/>
     <use style="fill:#008000;stroke:#008000;" x="274.763636" xlink:href="#m4c5c52dec2" y="476.654386"/>
     <use style="fill:#008000;stroke:#008000;" x="184.581818" xlink:href="#m4c5c52dec2" y="478.912316"/>
    </g>
   </g>
   <g id="line2d_18">
    <path clip-path="url(#pd422177aee)" d="M 996.218182 479.197802 
L 906.036364 479.535194 
L 815.854545 479.74282 
L 725.672727 480.780949 
L 635.490909 481.637405 
L 545.309091 482.07861 
L 455.127273 481.896937 
L 364.945455 482.07861 
L 274.763636 482.493861 
L 184.581818 483.350318 
" style="fill:none;stroke:#008000;stroke-linecap:square;stroke-width:1.5;"/>
    <g clip-path="url(#pd422177aee)">
     <use style="fill:#008000;stroke:#008000;" x="996.218182" xlink:href="#m4c5c52dec2" y="479.197802"/>
     <use style="fill:#008000;stroke:#008000;" x="906.036364" xlink:href="#m4c5c52dec2" y="479.535194"/>
     <use style="fill:#008000;stroke:#008000;" x="815.854545" xlink:href="#m4c5c52dec2" y="479.74282"/>
     <use style="fill:#008000;stroke:#008000;" x="725.672727" xlink:href="#m4c5c52dec2" y="480.780949"/>
     <use style="fill:#008000;stroke:#008000;" x="635.490909" xlink:href="#m4c5c52dec2" y="481.637405"/>
     <use style="fill:#008000;stroke:#008000;" x="545.309091" xlink:href="#m4c5c52dec2" y="482.07861"/>
     <use style="fill:#008000;stroke:#008000;" x="455.127273" xlink:href="#m4c5c52dec2" y="481.896937"/>
     <use style="fill:#008000;stroke:#008000;" x="364.945455" xlink:href="#m4c5c52dec2" y="482.07861"/>
     <use style="fill:#008000;stroke:#008000;" x="274.763636" xlink:href="#m4c5c52dec2" y="482.493861"/>
     <use style="fill:#008000;stroke:#008000;" x="184.581818" xlink:href="#m4c5c52dec2" y="483.350318"/>
    </g>
   </g>
   <g id="line2d_19">
    <path clip-path="url(#pd422177aee)" d="M 996.218182 478.237533 
L 906.036364 480.106165 
L 815.854545 480.703089 
L 725.672727 480.858808 
L 635.490909 481.066434 
L 545.309091 482.312189 
L 455.127273 482.649581 
L 364.945455 482.649581 
L 274.763636 483.53199 
L 184.581818 483.53199 
" style="fill:none;stroke:#008000;stroke-linecap:square;stroke-width:1.5;"/>
    <g clip-path="url(#pd422177aee)">
     <use style="fill:#008000;stroke:#008000;" x="996.218182" xlink:href="#m4c5c52dec2" y="478.237533"/>
     <use style="fill:#008000;stroke:#008000;" x="906.036364" xlink:href="#m4c5c52dec2" y="480.106165"/>
     <use style="fill:#008000;stroke:#008000;" x="815.854545" xlink:href="#m4c5c52dec2" y="480.703089"/>
     <use style="fill:#008000;stroke:#008000;" x="725.672727" xlink:href="#m4c5c52dec2" y="480.858808"/>
     <use style="fill:#008000;stroke:#008000;" x="635.490909" xlink:href="#m4c5c52dec2" y="481.066434"/>
     <use style="fill:#008000;stroke:#008000;" x="545.309091" xlink:href="#m4c5c52dec2" y="482.312189"/>
     <use style="fill:#008000;stroke:#008000;" x="455.127273" xlink:href="#m4c5c52dec2" y="482.649581"/>
     <use style="fill:#008000;stroke:#008000;" x="364.945455" xlink:href="#m4c5c52dec2" y="482.649581"/>
     <use style="fill:#008000;stroke:#008000;" x="274.763636" xlink:href="#m4c5c52dec2" y="483.53199"/>
     <use style="fill:#008000;stroke:#008000;" x="184.581818" xlink:href="#m4c5c52dec2" y="483.53199"/>
    </g>
   </g>
   <g id="line2d_20">
    <path clip-path="url(#pd422177aee)" d="M 996.218182 484.025101 
L 906.036364 483.973195 
L 815.854545 484.025101 
L 725.672727 484.232727 
L 635.490909 483.999148 
L 545.309091 484.206774 
L 455.127273 483.999148 
L 364.945455 483.506037 
L 274.763636 483.480084 
L 184.581818 483.999148 
" style="fill:none;stroke:#008000;stroke-linecap:square;stroke-width:1.5;"/>
    <g clip-path="url(#pd422177aee)">
     <use style="fill:#008000;stroke:#008000;" x="996.218182" xlink:href="#m4c5c52dec2" y="484.025101"/>
     <use style="fill:#008000;stroke:#008000;" x="906.036364" xlink:href="#m4c5c52dec2" y="483.973195"/>
     <use style="fill:#008000;stroke:#008000;" x="815.854545" xlink:href="#m4c5c52dec2" y="484.025101"/>
     <use style="fill:#008000;stroke:#008000;" x="725.672727" xlink:href="#m4c5c52dec2" y="484.232727"/>
     <use style="fill:#008000;stroke:#008000;" x="635.490909" xlink:href="#m4c5c52dec2" y="483.999148"/>
     <use style="fill:#008000;stroke:#008000;" x="545.309091" xlink:href="#m4c5c52dec2" y="484.206774"/>
     <use style="fill:#008000;stroke:#008000;" x="455.127273" xlink:href="#m4c5c52dec2" y="483.999148"/>
     <use style="fill:#008000;stroke:#008000;" x="364.945455" xlink:href="#m4c5c52dec2" y="483.506037"/>
     <use style="fill:#008000;stroke:#008000;" x="274.763636" xlink:href="#m4c5c52dec2" y="483.480084"/>
     <use style="fill:#008000;stroke:#008000;" x="184.581818" xlink:href="#m4c5c52dec2" y="483.999148"/>
    </g>
   </g>
   <g id="line2d_21">
    <path clip-path="url(#pd422177aee)" d="M 996.218182 374.450592 
L 906.036364 401.519804 
L 815.854545 413.40638 
L 725.672727 425.993694 
L 635.490909 433.182737 
L 545.309091 443.27854 
L 455.127273 450.986648 
L 364.945455 456.07348 
L 274.763636 460.952686 
L 184.581818 467.311226 
" style="fill:none;stroke:#ff0000;stroke-linecap:square;stroke-width:1.5;"/>
    <defs>
     <path d="M 0 1.5 
C 0.397805 1.5 0.77937 1.341951 1.06066 1.06066 
C 1.341951 0.77937 1.5 0.397805 1.5 0 
C 1.5 -0.397805 1.341951 -0.77937 1.06066 -1.06066 
C 0.77937 -1.341951 0.397805 -1.5 0 -1.5 
C -0.397805 -1.5 -0.77937 -1.341951 -1.06066 -1.06066 
C -1.341951 -0.77937 -1.5 -0.397805 -1.5 0 
C -1.5 0.397805 -1.341951 0.77937 -1.06066 1.06066 
C -0.77937 1.341951 -0.397805 1.5 0 1.5 
z
" id="m44c2ef3dc5" style="stroke:#ff0000;"/>
    </defs>
    <g clip-path="url(#pd422177aee)">
     <use style="fill:#ff0000;stroke:#ff0000;" x="996.218182" xlink:href="#m44c2ef3dc5" y="374.450592"/>
     <use style="fill:#ff0000;stroke:#ff0000;" x="906.036364" xlink:href="#m44c2ef3dc5" y="401.519804"/>
     <use style="fill:#ff0000;stroke:#ff0000;" x="815.854545" xlink:href="#m44c2ef3dc5" y="413.40638"/>
     <use style="fill:#ff0000;stroke:#ff0000;" x="725.672727" xlink:href="#m44c2ef3dc5" y="425.993694"/>
     <use style="fill:#ff0000;stroke:#ff0000;" x="635.490909" xlink:href="#m44c2ef3dc5" y="433.182737"/>
     <use style="fill:#ff0000;stroke:#ff0000;" x="545.309091" xlink:href="#m44c2ef3dc5" y="443.27854"/>
     <use style="fill:#ff0000;stroke:#ff0000;" x="455.127273" xlink:href="#m44c2ef3dc5" y="450.986648"/>
     <use style="fill:#ff0000;stroke:#ff0000;" x="364.945455" xlink:href="#m44c2ef3dc5" y="456.07348"/>
     <use style="fill:#ff0000;stroke:#ff0000;" x="274.763636" xlink:href="#m44c2ef3dc5" y="460.952686"/>
     <use style="fill:#ff0000;stroke:#ff0000;" x="184.581818" xlink:href="#m44c2ef3dc5" y="467.311226"/>
    </g>
   </g>
   <g id="line2d_22">
    <path clip-path="url(#pd422177aee)" d="M 996.218182 463.054897 
L 906.036364 469.179858 
L 815.854545 472.034712 
L 725.672727 472.891169 
L 635.490909 476.784152 
L 545.309091 477.432983 
L 455.127273 479.483287 
L 364.945455 480.625229 
L 274.763636 482.182423 
L 184.581818 482.07861 
" style="fill:none;stroke:#ff0000;stroke-linecap:square;stroke-width:1.5;"/>
    <g clip-path="url(#pd422177aee)">
     <use style="fill:#ff0000;stroke:#ff0000;" x="996.218182" xlink:href="#m44c2ef3dc5" y="463.054897"/>
     <use style="fill:#ff0000;stroke:#ff0000;" x="906.036364" xlink:href="#m44c2ef3dc5" y="469.179858"/>
     <use style="fill:#ff0000;stroke:#ff0000;" x="815.854545" xlink:href="#m44c2ef3dc5" y="472.034712"/>
     <use style="fill:#ff0000;stroke:#ff0000;" x="725.672727" xlink:href="#m44c2ef3dc5" y="472.891169"/>
     <use style="fill:#ff0000;stroke:#ff0000;" x="635.490909" xlink:href="#m44c2ef3dc5" y="476.784152"/>
     <use style="fill:#ff0000;stroke:#ff0000;" x="545.309091" xlink:href="#m44c2ef3dc5" y="477.432983"/>
     <use style="fill:#ff0000;stroke:#ff0000;" x="455.127273" xlink:href="#m44c2ef3dc5" y="479.483287"/>
     <use style="fill:#ff0000;stroke:#ff0000;" x="364.945455" xlink:href="#m44c2ef3dc5" y="480.625229"/>
     <use style="fill:#ff0000;stroke:#ff0000;" x="274.763636" xlink:href="#m44c2ef3dc5" y="482.182423"/>
     <use style="fill:#ff0000;stroke:#ff0000;" x="184.581818" xlink:href="#m44c2ef3dc5" y="482.07861"/>
    </g>
   </g>
   <g id="line2d_23">
    <path clip-path="url(#pd422177aee)" d="M 996.218182 266.277556 
L 906.036364 302.819695 
L 815.854545 320.727419 
L 725.672727 342.450267 
L 635.490909 356.750493 
L 545.309091 371.855269 
L 455.127273 382.625857 
L 364.945455 390.956842 
L 274.763636 401.208365 
L 184.581818 413.847585 
" style="fill:none;stroke:#ff0000;stroke-linecap:square;stroke-width:1.5;"/>
    <g clip-path="url(#pd422177aee)">
     <use style="fill:#ff0000;stroke:#ff0000;" x="996.218182" xlink:href="#m44c2ef3dc5" y="266.277556"/>
     <use style="fill:#ff0000;stroke:#ff0000;" x="906.036364" xlink:href="#m44c2ef3dc5" y="302.819695"/>
     <use style="fill:#ff0000;stroke:#ff0000;" x="815.854545" xlink:href="#m44c2ef3dc5" y="320.727419"/>
     <use style="fill:#ff0000;stroke:#ff0000;" x="725.672727" xlink:href="#m44c2ef3dc5" y="342.450267"/>
     <use style="fill:#ff0000;stroke:#ff0000;" x="635.490909" xlink:href="#m44c2ef3dc5" y="356.750493"/>
     <use style="fill:#ff0000;stroke:#ff0000;" x="545.309091" xlink:href="#m44c2ef3dc5" y="371.855269"/>
     <use style="fill:#ff0000;stroke:#ff0000;" x="455.127273" xlink:href="#m44c2ef3dc5" y="382.625857"/>
     <use style="fill:#ff0000;stroke:#ff0000;" x="364.945455" xlink:href="#m44c2ef3dc5" y="390.956842"/>
     <use style="fill:#ff0000;stroke:#ff0000;" x="274.763636" xlink:href="#m44c2ef3dc5" y="401.208365"/>
     <use style="fill:#ff0000;stroke:#ff0000;" x="184.581818" xlink:href="#m44c2ef3dc5" y="413.847585"/>
    </g>
   </g>
   <g id="line2d_24">
    <path clip-path="url(#pd422177aee)" d="M 996.218182 88.887273 
L 906.036364 153.666519 
L 815.854545 179.827368 
L 725.672727 217.745028 
L 635.490909 245.696649 
L 545.309091 264.201298 
L 455.127273 286.469164 
L 364.945455 307.750807 
L 274.763636 328.876731 
L 184.581818 349.068339 
" style="fill:none;stroke:#ff0000;stroke-linecap:square;stroke-width:1.5;"/>
    <g clip-path="url(#pd422177aee)">
     <use style="fill:#ff0000;stroke:#ff0000;" x="996.218182" xlink:href="#m44c2ef3dc5" y="88.887273"/>
     <use style="fill:#ff0000;stroke:#ff0000;" x="906.036364" xlink:href="#m44c2ef3dc5" y="153.666519"/>
     <use style="fill:#ff0000;stroke:#ff0000;" x="815.854545" xlink:href="#m44c2ef3dc5" y="179.827368"/>
     <use style="fill:#ff0000;stroke:#ff0000;" x="725.672727" xlink:href="#m44c2ef3dc5" y="217.745028"/>
     <use style="fill:#ff0000;stroke:#ff0000;" x="635.490909" xlink:href="#m44c2ef3dc5" y="245.696649"/>
     <use style="fill:#ff0000;stroke:#ff0000;" x="545.309091" xlink:href="#m44c2ef3dc5" y="264.201298"/>
     <use style="fill:#ff0000;stroke:#ff0000;" x="455.127273" xlink:href="#m44c2ef3dc5" y="286.469164"/>
     <use style="fill:#ff0000;stroke:#ff0000;" x="364.945455" xlink:href="#m44c2ef3dc5" y="307.750807"/>
     <use style="fill:#ff0000;stroke:#ff0000;" x="274.763636" xlink:href="#m44c2ef3dc5" y="328.876731"/>
     <use style="fill:#ff0000;stroke:#ff0000;" x="184.581818" xlink:href="#m44c2ef3dc5" y="349.068339"/>
    </g>
   </g>
   <g id="line2d_25">
    <path clip-path="url(#pd422177aee)" d="M 996.218182 296.227576 
L 906.036364 330.615597 
L 815.854545 338.219892 
L 725.672727 357.762669 
L 635.490909 369.882824 
L 545.309091 381.19843 
L 455.127273 389.866806 
L 364.945455 402.661746 
L 274.763636 409.954601 
L 184.581818 420.932815 
" style="fill:none;stroke:#ff0000;stroke-linecap:square;stroke-width:1.5;"/>
    <g clip-path="url(#pd422177aee)">
     <use style="fill:#ff0000;stroke:#ff0000;" x="996.218182" xlink:href="#m44c2ef3dc5" y="296.227576"/>
     <use style="fill:#ff0000;stroke:#ff0000;" x="906.036364" xlink:href="#m44c2ef3dc5" y="330.615597"/>
     <use style="fill:#ff0000;stroke:#ff0000;" x="815.854545" xlink:href="#m44c2ef3dc5" y="338.219892"/>
     <use style="fill:#ff0000;stroke:#ff0000;" x="725.672727" xlink:href="#m44c2ef3dc5" y="357.762669"/>
     <use style="fill:#ff0000;stroke:#ff0000;" x="635.490909" xlink:href="#m44c2ef3dc5" y="369.882824"/>
     <use style="fill:#ff0000;stroke:#ff0000;" x="545.309091" xlink:href="#m44c2ef3dc5" y="381.19843"/>
     <use style="fill:#ff0000;stroke:#ff0000;" x="455.127273" xlink:href="#m44c2ef3dc5" y="389.866806"/>
     <use style="fill:#ff0000;stroke:#ff0000;" x="364.945455" xlink:href="#m44c2ef3dc5" y="402.661746"/>
     <use style="fill:#ff0000;stroke:#ff0000;" x="274.763636" xlink:href="#m44c2ef3dc5" y="409.954601"/>
     <use style="fill:#ff0000;stroke:#ff0000;" x="184.581818" xlink:href="#m44c2ef3dc5" y="420.932815"/>
    </g>
   </g>
   <g id="line2d_26">
    <path clip-path="url(#pd422177aee)" d="M 996.218182 430.8729 
L 906.036364 437.257393 
L 815.854545 441.487768 
L 725.672727 447.249384 
L 635.490909 449.844706 
L 545.309091 448.1837 
L 455.127273 451.583572 
L 364.945455 452.907186 
L 274.763636 454.905585 
L 184.581818 459.395492 
" style="fill:none;stroke:#ff0000;stroke-linecap:square;stroke-width:1.5;"/>
    <g clip-path="url(#pd422177aee)">
     <use style="fill:#ff0000;stroke:#ff0000;" x="996.218182" xlink:href="#m44c2ef3dc5" y="430.8729"/>
     <use style="fill:#ff0000;stroke:#ff0000;" x="906.036364" xlink:href="#m44c2ef3dc5" y="437.257393"/>
     <use style="fill:#ff0000;stroke:#ff0000;" x="815.854545" xlink:href="#m44c2ef3dc5" y="441.487768"/>
     <use style="fill:#ff0000;stroke:#ff0000;" x="725.672727" xlink:href="#m44c2ef3dc5" y="447.249384"/>
     <use style="fill:#ff0000;stroke:#ff0000;" x="635.490909" xlink:href="#m44c2ef3dc5" y="449.844706"/>
     <use style="fill:#ff0000;stroke:#ff0000;" x="545.309091" xlink:href="#m44c2ef3dc5" y="448.1837"/>
     <use style="fill:#ff0000;stroke:#ff0000;" x="455.127273" xlink:href="#m44c2ef3dc5" y="451.583572"/>
     <use style="fill:#ff0000;stroke:#ff0000;" x="364.945455" xlink:href="#m44c2ef3dc5" y="452.907186"/>
     <use style="fill:#ff0000;stroke:#ff0000;" x="274.763636" xlink:href="#m44c2ef3dc5" y="454.905585"/>
     <use style="fill:#ff0000;stroke:#ff0000;" x="184.581818" xlink:href="#m44c2ef3dc5" y="459.395492"/>
    </g>
   </g>
   <g id="patch_3">
    <path d="M 144 504 
L 144 69.12 
" style="fill:none;stroke:#000000;stroke-linecap:square;stroke-linejoin:miter;stroke-width:0.8;"/>
   </g>
   <g id="patch_4">
    <path d="M 1036.8 504 
L 1036.8 69.12 
" style="fill:none;stroke:#000000;stroke-linecap:square;stroke-linejoin:miter;stroke-width:0.8;"/>
   </g>
   <g id="patch_5">
    <path d="M 144 504 
L 1036.8 504 
" style="fill:none;stroke:#000000;stroke-linecap:square;stroke-linejoin:miter;stroke-width:0.8;"/>
   </g>
   <g id="patch_6">
    <path d="M 144 69.12 
L 1036.8 69.12 
" style="fill:none;stroke:#000000;stroke-linecap:square;stroke-linejoin:miter;stroke-width:0.8;"/>
   </g>
   <g id="text_17">
    <!-- Numero de publicações por ano na revista Scopus -->
    <g transform="translate(378.724219 63.12)scale(0.15 -0.15)">
     <defs>
      <path d="M 9.1875 72.90625 
L 30.171875 72.90625 
L 56.6875 22.90625 
L 56.6875 72.90625 
L 74.515625 72.90625 
L 74.515625 0 
L 53.515625 0 
L 27 50 
L 27 0 
L 9.1875 0 
z
" id="DejaVuSans-Bold-78"/>
      <path d="M 59.078125 45.609375 
Q 62.40625 50.6875 66.96875 53.34375 
Q 71.53125 56 77 56 
Q 86.421875 56 91.359375 50.1875 
Q 96.296875 44.390625 96.296875 33.296875 
L 96.296875 0 
L 78.71875 0 
L 78.71875 28.515625 
Q 78.765625 29.15625 78.78125 29.828125 
Q 78.8125 30.515625 78.8125 31.78125 
Q 78.8125 37.59375 77.09375 40.203125 
Q 75.390625 42.828125 71.578125 42.828125 
Q 66.609375 42.828125 63.890625 38.71875 
Q 61.1875 34.625 61.078125 26.859375 
L 61.078125 0 
L 43.5 0 
L 43.5 28.515625 
Q 43.5 37.59375 41.9375 40.203125 
Q 40.375 42.828125 36.375 42.828125 
Q 31.34375 42.828125 28.609375 38.703125 
Q 25.875 34.578125 25.875 26.90625 
L 25.875 0 
L 8.296875 0 
L 8.296875 54.6875 
L 25.875 54.6875 
L 25.875 46.6875 
Q 29.109375 51.3125 33.28125 53.65625 
Q 37.453125 56 42.484375 56 
Q 48.140625 56 52.484375 53.265625 
Q 56.84375 50.53125 59.078125 45.609375 
z
" id="DejaVuSans-Bold-109"/>
      <path id="DejaVuSans-Bold-32"/>
      <path d="M 45.609375 46.6875 
L 45.609375 75.984375 
L 63.1875 75.984375 
L 63.1875 0 
L 45.609375 0 
L 45.609375 7.90625 
Q 42 3.078125 37.640625 0.828125 
Q 33.296875 -1.421875 27.59375 -1.421875 
Q 17.484375 -1.421875 10.984375 6.609375 
Q 4.5 14.65625 4.5 27.296875 
Q 4.5 39.9375 10.984375 47.96875 
Q 17.484375 56 27.59375 56 
Q 33.25 56 37.625 53.734375 
Q 42 51.46875 45.609375 46.6875 
z
M 34.078125 11.28125 
Q 39.703125 11.28125 42.65625 15.375 
Q 45.609375 19.484375 45.609375 27.296875 
Q 45.609375 35.109375 42.65625 39.203125 
Q 39.703125 43.3125 34.078125 43.3125 
Q 28.515625 43.3125 25.5625 39.203125 
Q 22.609375 35.109375 22.609375 27.296875 
Q 22.609375 19.484375 25.5625 15.375 
Q 28.515625 11.28125 34.078125 11.28125 
z
" id="DejaVuSans-Bold-100"/>
      <path d="M 52.59375 52.984375 
L 52.59375 38.71875 
Q 49.03125 41.15625 45.4375 42.328125 
Q 41.84375 43.5 37.984375 43.5 
Q 30.671875 43.5 26.59375 39.234375 
Q 22.515625 34.96875 22.515625 27.296875 
Q 22.515625 19.625 26.59375 15.34375 
Q 30.671875 11.078125 37.984375 11.078125 
Q 42.09375 11.078125 45.78125 12.296875 
Q 49.46875 13.53125 52.59375 15.921875 
L 52.59375 1.609375 
Q 48.484375 0.09375 44.265625 -0.65625 
Q 40.046875 -1.421875 35.796875 -1.421875 
Q 21 -1.421875 12.640625 6.171875 
Q 4.296875 13.765625 4.296875 27.296875 
Q 4.296875 40.828125 12.640625 48.40625 
Q 21 56 35.796875 56 
Q 40.09375 56 44.265625 55.25 
Q 48.4375 54.5 52.59375 52.984375 
z
M 38.375 0 
Q 41.21875 -3.03125 42.546875 -5.609375 
Q 43.890625 -8.203125 43.890625 -10.5 
Q 43.890625 -15.140625 40.890625 -17.359375 
Q 37.890625 -19.578125 31.6875 -19.578125 
Q 29.34375 -19.578125 26.84375 -19.265625 
Q 24.359375 -18.953125 21.828125 -18.3125 
L 21.78125 -10.890625 
Q 24.21875 -11.671875 26.234375 -12.03125 
Q 28.265625 -12.40625 29.890625 -12.40625 
Q 32.71875 -12.40625 34.296875 -11.28125 
Q 35.890625 -10.15625 35.890625 -8.203125 
Q 35.890625 -6.9375 34.84375 -4.9375 
Q 33.796875 -2.9375 31.59375 0 
z
" id="DejaVuSans-Bold-231"/>
      <path d="M 34.421875 43.5 
Q 28.609375 43.5 25.5625 39.328125 
Q 22.515625 35.15625 22.515625 27.296875 
Q 22.515625 19.4375 25.5625 15.25 
Q 28.609375 11.078125 34.421875 11.078125 
Q 40.140625 11.078125 43.15625 15.25 
Q 46.1875 19.4375 46.1875 27.296875 
Q 46.1875 35.15625 43.15625 39.328125 
Q 40.140625 43.5 34.421875 43.5 
z
M 34.421875 56 
Q 48.53125 56 56.46875 48.375 
Q 64.40625 40.765625 64.40625 27.296875 
Q 64.40625 13.8125 56.46875 6.1875 
Q 48.53125 -1.421875 34.421875 -1.421875 
Q 20.265625 -1.421875 12.28125 6.1875 
Q 4.296875 13.8125 4.296875 27.296875 
Q 4.296875 40.765625 12.28125 48.375 
Q 20.265625 56 34.421875 56 
z
M 34.375 66.609375 
L 31.6875 68.40625 
Q 31.5 68.5 31.203125 68.703125 
Q 28.90625 70.21875 27.6875 70.21875 
Q 25.921875 70.21875 25 68.703125 
Q 24.078125 67.1875 24.078125 64.3125 
L 24.078125 63.921875 
L 17.28125 63.921875 
Q 17.28125 70.5625 19.796875 74.171875 
Q 22.3125 77.78125 26.859375 77.78125 
Q 28.609375 77.78125 30.390625 77.125 
Q 32.171875 76.46875 34.1875 75 
L 37.15625 72.90625 
Q 38.234375 72.171875 39.140625 71.78125 
Q 40.046875 71.390625 40.765625 71.390625 
Q 42.53125 71.390625 43.5 72.953125 
Q 44.484375 74.515625 44.484375 77.296875 
L 44.484375 77.6875 
L 51.265625 77.6875 
Q 51.265625 71.046875 48.75 67.421875 
Q 46.234375 63.8125 41.703125 63.8125 
Q 39.9375 63.8125 38.296875 64.390625 
Q 36.671875 64.984375 34.375 66.609375 
z
" id="DejaVuSans-Bold-245"/>
      <path d="M 1.515625 54.6875 
L 19 54.6875 
L 32.625 16.890625 
L 46.1875 54.6875 
L 63.71875 54.6875 
L 42.1875 0 
L 23 0 
z
" id="DejaVuSans-Bold-118"/>
      <path d="M 59.90625 70.609375 
L 59.90625 55.171875 
Q 53.90625 57.859375 48.1875 59.21875 
Q 42.484375 60.59375 37.40625 60.59375 
Q 30.671875 60.59375 27.4375 58.734375 
Q 24.21875 56.890625 24.21875 52.984375 
Q 24.21875 50.046875 26.390625 48.40625 
Q 28.5625 46.78125 34.28125 45.609375 
L 42.28125 44 
Q 54.4375 41.546875 59.5625 36.5625 
Q 64.703125 31.59375 64.703125 22.40625 
Q 64.703125 10.359375 57.546875 4.46875 
Q 50.390625 -1.421875 35.6875 -1.421875 
Q 28.765625 -1.421875 21.78125 -0.09375 
Q 14.796875 1.21875 7.8125 3.8125 
L 7.8125 19.671875 
Q 14.796875 15.96875 21.3125 14.078125 
Q 27.828125 12.203125 33.890625 12.203125 
Q 40.046875 12.203125 43.3125 14.25 
Q 46.578125 16.3125 46.578125 20.125 
Q 46.578125 23.53125 44.359375 25.390625 
Q 42.140625 27.25 35.5 28.71875 
L 28.21875 30.328125 
Q 17.28125 32.671875 12.21875 37.796875 
Q 7.171875 42.921875 7.171875 51.609375 
Q 7.171875 62.5 14.203125 68.359375 
Q 21.234375 74.21875 34.421875 74.21875 
Q 40.4375 74.21875 46.78125 73.3125 
Q 53.125 72.40625 59.90625 70.609375 
z
" id="DejaVuSans-Bold-83"/>
     </defs>
     <use xlink:href="#DejaVuSans-Bold-78"/>
     <use x="83.691406" xlink:href="#DejaVuSans-Bold-117"/>
     <use x="154.882812" xlink:href="#DejaVuSans-Bold-109"/>
     <use x="259.082031" xlink:href="#DejaVuSans-Bold-101"/>
     <use x="326.904297" xlink:href="#DejaVuSans-Bold-114"/>
     <use x="376.220703" xlink:href="#DejaVuSans-Bold-111"/>
     <use x="444.921875" xlink:href="#DejaVuSans-Bold-32"/>
     <use x="479.736328" xlink:href="#DejaVuSans-Bold-100"/>
     <use x="551.318359" xlink:href="#DejaVuSans-Bold-101"/>
     <use x="619.140625" xlink:href="#DejaVuSans-Bold-32"/>
     <use x="653.955078" xlink:href="#DejaVuSans-Bold-112"/>
     <use x="725.537109" xlink:href="#DejaVuSans-Bold-117"/>
     <use x="796.728516" xlink:href="#DejaVuSans-Bold-98"/>
     <use x="868.310547" xlink:href="#DejaVuSans-Bold-108"/>
     <use x="902.587891" xlink:href="#DejaVuSans-Bold-105"/>
     <use x="936.865234" xlink:href="#DejaVuSans-Bold-99"/>
     <use x="996.142578" xlink:href="#DejaVuSans-Bold-97"/>
     <use x="1063.623047" xlink:href="#DejaVuSans-Bold-231"/>
     <use x="1122.900391" xlink:href="#DejaVuSans-Bold-245"/>
     <use x="1191.601562" xlink:href="#DejaVuSans-Bold-101"/>
     <use x="1259.423828" xlink:href="#DejaVuSans-Bold-115"/>
     <use x="1318.945312" xlink:href="#DejaVuSans-Bold-32"/>
     <use x="1353.759766" xlink:href="#DejaVuSans-Bold-112"/>
     <use x="1425.341797" xlink:href="#DejaVuSans-Bold-111"/>
     <use x="1494.042969" xlink:href="#DejaVuSans-Bold-114"/>
     <use x="1543.359375" xlink:href="#DejaVuSans-Bold-32"/>
     <use x="1578.173828" xlink:href="#DejaVuSans-Bold-97"/>
     <use x="1645.654297" xlink:href="#DejaVuSans-Bold-110"/>
     <use x="1716.845703" xlink:href="#DejaVuSans-Bold-111"/>
     <use x="1785.546875" xlink:href="#DejaVuSans-Bold-32"/>
     <use x="1820.361328" xlink:href="#DejaVuSans-Bold-110"/>
     <use x="1891.552734" xlink:href="#DejaVuSans-Bold-97"/>
     <use x="1959.033203" xlink:href="#DejaVuSans-Bold-32"/>
     <use x="1993.847656" xlink:href="#DejaVuSans-Bold-114"/>
     <use x="2043.164062" xlink:href="#DejaVuSans-Bold-101"/>
     <use x="2110.986328" xlink:href="#DejaVuSans-Bold-118"/>
     <use x="2176.171875" xlink:href="#DejaVuSans-Bold-105"/>
     <use x="2210.449219" xlink:href="#DejaVuSans-Bold-115"/>
     <use x="2269.970703" xlink:href="#DejaVuSans-Bold-116"/>
     <use x="2317.773438" xlink:href="#DejaVuSans-Bold-97"/>
     <use x="2385.253906" xlink:href="#DejaVuSans-Bold-32"/>
     <use x="2420.068359" xlink:href="#DejaVuSans-Bold-83"/>
     <use x="2492.089844" xlink:href="#DejaVuSans-Bold-99"/>
     <use x="2551.367188" xlink:href="#DejaVuSans-Bold-111"/>
     <use x="2620.068359" xlink:href="#DejaVuSans-Bold-112"/>
     <use x="2691.650391" xlink:href="#DejaVuSans-Bold-117"/>
     <use x="2762.841797" xlink:href="#DejaVuSans-Bold-115"/>
    </g>
   </g>
   <g id="legend_1">
    <g id="patch_7">
     <path d="M 151 253.2575 
L 241.682813 253.2575 
Q 243.682813 253.2575 243.682813 251.2575 
L 243.682813 76.12 
Q 243.682813 74.12 241.682813 74.12 
L 151 74.12 
Q 149 74.12 149 76.12 
L 149 251.2575 
Q 149 253.2575 151 253.2575 
z
" style="fill:#ffffff;opacity:0.8;stroke:#cccccc;stroke-linejoin:miter;"/>
    </g>
    <g id="line2d_27">
     <path d="M 153 82.218437 
L 173 82.218437 
" style="fill:none;stroke:#008000;stroke-linecap:square;stroke-width:1.5;"/>
    </g>
    <g id="line2d_28">
     <g>
      <use style="fill:#008000;stroke:#008000;" x="163" xlink:href="#m4c5c52dec2" y="82.218437"/>
     </g>
    </g>
    <g id="text_18">
     <!-- predicao -->
     <g transform="translate(181 85.718437)scale(0.1 -0.1)">
      <defs>
       <path d="M 18.109375 8.203125 
L 18.109375 -20.796875 
L 9.078125 -20.796875 
L 9.078125 54.6875 
L 18.109375 54.6875 
L 18.109375 46.390625 
Q 20.953125 51.265625 25.265625 53.625 
Q 29.59375 56 35.59375 56 
Q 45.5625 56 51.78125 48.09375 
Q 58.015625 40.1875 58.015625 27.296875 
Q 58.015625 14.40625 51.78125 6.484375 
Q 45.5625 -1.421875 35.59375 -1.421875 
Q 29.59375 -1.421875 25.265625 0.953125 
Q 20.953125 3.328125 18.109375 8.203125 
z
M 48.6875 27.296875 
Q 48.6875 37.203125 44.609375 42.84375 
Q 40.53125 48.484375 33.40625 48.484375 
Q 26.265625 48.484375 22.1875 42.84375 
Q 18.109375 37.203125 18.109375 27.296875 
Q 18.109375 17.390625 22.1875 11.75 
Q 26.265625 6.109375 33.40625 6.109375 
Q 40.53125 6.109375 44.609375 11.75 
Q 48.6875 17.390625 48.6875 27.296875 
z
" id="DejaVuSans-112"/>
       <path d="M 41.109375 46.296875 
Q 39.59375 47.171875 37.8125 47.578125 
Q 36.03125 48 33.890625 48 
Q 26.265625 48 22.1875 43.046875 
Q 18.109375 38.09375 18.109375 28.8125 
L 18.109375 0 
L 9.078125 0 
L 9.078125 54.6875 
L 18.109375 54.6875 
L 18.109375 46.1875 
Q 20.953125 51.171875 25.484375 53.578125 
Q 30.03125 56 36.53125 56 
Q 37.453125 56 38.578125 55.875 
Q 39.703125 55.765625 41.0625 55.515625 
z
" id="DejaVuSans-114"/>
       <path d="M 56.203125 29.59375 
L 56.203125 25.203125 
L 14.890625 25.203125 
Q 15.484375 15.921875 20.484375 11.0625 
Q 25.484375 6.203125 34.421875 6.203125 
Q 39.59375 6.203125 44.453125 7.46875 
Q 49.3125 8.734375 54.109375 11.28125 
L 54.109375 2.78125 
Q 49.265625 0.734375 44.1875 -0.34375 
Q 39.109375 -1.421875 33.890625 -1.421875 
Q 20.796875 -1.421875 13.15625 6.1875 
Q 5.515625 13.8125 5.515625 26.8125 
Q 5.515625 40.234375 12.765625 48.109375 
Q 20.015625 56 32.328125 56 
Q 43.359375 56 49.78125 48.890625 
Q 56.203125 41.796875 56.203125 29.59375 
z
M 47.21875 32.234375 
Q 47.125 39.59375 43.09375 43.984375 
Q 39.0625 48.390625 32.421875 48.390625 
Q 24.90625 48.390625 20.390625 44.140625 
Q 15.875 39.890625 15.1875 32.171875 
z
" id="DejaVuSans-101"/>
       <path d="M 45.40625 46.390625 
L 45.40625 75.984375 
L 54.390625 75.984375 
L 54.390625 0 
L 45.40625 0 
L 45.40625 8.203125 
Q 42.578125 3.328125 38.25 0.953125 
Q 33.9375 -1.421875 27.875 -1.421875 
Q 17.96875 -1.421875 11.734375 6.484375 
Q 5.515625 14.40625 5.515625 27.296875 
Q 5.515625 40.1875 11.734375 48.09375 
Q 17.96875 56 27.875 56 
Q 33.9375 56 38.25 53.625 
Q 42.578125 51.265625 45.40625 46.390625 
z
M 14.796875 27.296875 
Q 14.796875 17.390625 18.875 11.75 
Q 22.953125 6.109375 30.078125 6.109375 
Q 37.203125 6.109375 41.296875 11.75 
Q 45.40625 17.390625 45.40625 27.296875 
Q 45.40625 37.203125 41.296875 42.84375 
Q 37.203125 48.484375 30.078125 48.484375 
Q 22.953125 48.484375 18.875 42.84375 
Q 14.796875 37.203125 14.796875 27.296875 
z
" id="DejaVuSans-100"/>
       <path d="M 9.421875 54.6875 
L 18.40625 54.6875 
L 18.40625 0 
L 9.421875 0 
z
M 9.421875 75.984375 
L 18.40625 75.984375 
L 18.40625 64.59375 
L 9.421875 64.59375 
z
" id="DejaVuSans-105"/>
       <path d="M 48.78125 52.59375 
L 48.78125 44.1875 
Q 44.96875 46.296875 41.140625 47.34375 
Q 37.3125 48.390625 33.40625 48.390625 
Q 24.65625 48.390625 19.8125 42.84375 
Q 14.984375 37.3125 14.984375 27.296875 
Q 14.984375 17.28125 19.8125 11.734375 
Q 24.65625 6.203125 33.40625 6.203125 
Q 37.3125 6.203125 41.140625 7.25 
Q 44.96875 8.296875 48.78125 10.40625 
L 48.78125 2.09375 
Q 45.015625 0.34375 40.984375 -0.53125 
Q 36.96875 -1.421875 32.421875 -1.421875 
Q 20.0625 -1.421875 12.78125 6.34375 
Q 5.515625 14.109375 5.515625 27.296875 
Q 5.515625 40.671875 12.859375 48.328125 
Q 20.21875 56 33.015625 56 
Q 37.15625 56 41.109375 55.140625 
Q 45.0625 54.296875 48.78125 52.59375 
z
" id="DejaVuSans-99"/>
       <path d="M 34.28125 27.484375 
Q 23.390625 27.484375 19.1875 25 
Q 14.984375 22.515625 14.984375 16.5 
Q 14.984375 11.71875 18.140625 8.90625 
Q 21.296875 6.109375 26.703125 6.109375 
Q 34.1875 6.109375 38.703125 11.40625 
Q 43.21875 16.703125 43.21875 25.484375 
L 43.21875 27.484375 
z
M 52.203125 31.203125 
L 52.203125 0 
L 43.21875 0 
L 43.21875 8.296875 
Q 40.140625 3.328125 35.546875 0.953125 
Q 30.953125 -1.421875 24.3125 -1.421875 
Q 15.921875 -1.421875 10.953125 3.296875 
Q 6 8.015625 6 15.921875 
Q 6 25.140625 12.171875 29.828125 
Q 18.359375 34.515625 30.609375 34.515625 
L 43.21875 34.515625 
L 43.21875 35.40625 
Q 43.21875 41.609375 39.140625 45 
Q 35.0625 48.390625 27.6875 48.390625 
Q 23 48.390625 18.546875 47.265625 
Q 14.109375 46.140625 10.015625 43.890625 
L 10.015625 52.203125 
Q 14.9375 54.109375 19.578125 55.046875 
Q 24.21875 56 28.609375 56 
Q 40.484375 56 46.34375 49.84375 
Q 52.203125 43.703125 52.203125 31.203125 
z
" id="DejaVuSans-97"/>
       <path d="M 30.609375 48.390625 
Q 23.390625 48.390625 19.1875 42.75 
Q 14.984375 37.109375 14.984375 27.296875 
Q 14.984375 17.484375 19.15625 11.84375 
Q 23.34375 6.203125 30.609375 6.203125 
Q 37.796875 6.203125 41.984375 11.859375 
Q 46.1875 17.53125 46.1875 27.296875 
Q 46.1875 37.015625 41.984375 42.703125 
Q 37.796875 48.390625 30.609375 48.390625 
z
M 30.609375 56 
Q 42.328125 56 49.015625 48.375 
Q 55.71875 40.765625 55.71875 27.296875 
Q 55.71875 13.875 49.015625 6.21875 
Q 42.328125 -1.421875 30.609375 -1.421875 
Q 18.84375 -1.421875 12.171875 6.21875 
Q 5.515625 13.875 5.515625 27.296875 
Q 5.515625 40.765625 12.171875 48.375 
Q 18.84375 56 30.609375 56 
z
" id="DejaVuSans-111"/>
      </defs>
      <use xlink:href="#DejaVuSans-112"/>
      <use x="63.476562" xlink:href="#DejaVuSans-114"/>
      <use x="102.339844" xlink:href="#DejaVuSans-101"/>
      <use x="163.863281" xlink:href="#DejaVuSans-100"/>
      <use x="227.339844" xlink:href="#DejaVuSans-105"/>
      <use x="255.123047" xlink:href="#DejaVuSans-99"/>
      <use x="310.103516" xlink:href="#DejaVuSans-97"/>
      <use x="371.382812" xlink:href="#DejaVuSans-111"/>
     </g>
    </g>
    <g id="line2d_29">
     <path d="M 153 96.896562 
L 173 96.896562 
" style="fill:none;stroke:#008000;stroke-linecap:square;stroke-width:1.5;"/>
    </g>
    <g id="line2d_30">
     <g>
      <use style="fill:#008000;stroke:#008000;" x="163" xlink:href="#m4c5c52dec2" y="96.896562"/>
     </g>
    </g>
    <g id="text_19">
     <!-- tendencia -->
     <g transform="translate(181 100.396562)scale(0.1 -0.1)">
      <defs>
       <path d="M 18.3125 70.21875 
L 18.3125 54.6875 
L 36.8125 54.6875 
L 36.8125 47.703125 
L 18.3125 47.703125 
L 18.3125 18.015625 
Q 18.3125 11.328125 20.140625 9.421875 
Q 21.96875 7.515625 27.59375 7.515625 
L 36.8125 7.515625 
L 36.8125 0 
L 27.59375 0 
Q 17.1875 0 13.234375 3.875 
Q 9.28125 7.765625 9.28125 18.015625 
L 9.28125 47.703125 
L 2.6875 47.703125 
L 2.6875 54.6875 
L 9.28125 54.6875 
L 9.28125 70.21875 
z
" id="DejaVuSans-116"/>
       <path d="M 54.890625 33.015625 
L 54.890625 0 
L 45.90625 0 
L 45.90625 32.71875 
Q 45.90625 40.484375 42.875 44.328125 
Q 39.84375 48.1875 33.796875 48.1875 
Q 26.515625 48.1875 22.3125 43.546875 
Q 18.109375 38.921875 18.109375 30.90625 
L 18.109375 0 
L 9.078125 0 
L 9.078125 54.6875 
L 18.109375 54.6875 
L 18.109375 46.1875 
Q 21.34375 51.125 25.703125 53.5625 
Q 30.078125 56 35.796875 56 
Q 45.21875 56 50.046875 50.171875 
Q 54.890625 44.34375 54.890625 33.015625 
z
" id="DejaVuSans-110"/>
      </defs>
      <use xlink:href="#DejaVuSans-116"/>
      <use x="39.208984" xlink:href="#DejaVuSans-101"/>
      <use x="100.732422" xlink:href="#DejaVuSans-110"/>
      <use x="164.111328" xlink:href="#DejaVuSans-100"/>
      <use x="227.587891" xlink:href="#DejaVuSans-101"/>
      <use x="289.111328" xlink:href="#DejaVuSans-110"/>
      <use x="352.490234" xlink:href="#DejaVuSans-99"/>
      <use x="407.470703" xlink:href="#DejaVuSans-105"/>
      <use x="435.253906" xlink:href="#DejaVuSans-97"/>
     </g>
    </g>
    <g id="line2d_31">
     <path d="M 153 111.574687 
L 173 111.574687 
" style="fill:none;stroke:#008000;stroke-linecap:square;stroke-width:1.5;"/>
    </g>
    <g id="line2d_32">
     <g>
      <use style="fill:#008000;stroke:#008000;" x="163" xlink:href="#m4c5c52dec2" y="111.574687"/>
     </g>
    </g>
    <g id="text_20">
     <!-- inovacao -->
     <g transform="translate(181 115.074687)scale(0.1 -0.1)">
      <defs>
       <path d="M 2.984375 54.6875 
L 12.5 54.6875 
L 29.59375 8.796875 
L 46.6875 54.6875 
L 56.203125 54.6875 
L 35.6875 0 
L 23.484375 0 
z
" id="DejaVuSans-118"/>
      </defs>
      <use xlink:href="#DejaVuSans-105"/>
      <use x="27.783203" xlink:href="#DejaVuSans-110"/>
      <use x="91.162109" xlink:href="#DejaVuSans-111"/>
      <use x="152.34375" xlink:href="#DejaVuSans-118"/>
      <use x="211.523438" xlink:href="#DejaVuSans-97"/>
      <use x="272.802734" xlink:href="#DejaVuSans-99"/>
      <use x="327.783203" xlink:href="#DejaVuSans-97"/>
      <use x="389.0625" xlink:href="#DejaVuSans-111"/>
     </g>
    </g>
    <g id="line2d_33">
     <path d="M 153 126.252812 
L 173 126.252812 
" style="fill:none;stroke:#008000;stroke-linecap:square;stroke-width:1.5;"/>
    </g>
    <g id="line2d_34">
     <g>
      <use style="fill:#008000;stroke:#008000;" x="163" xlink:href="#m4c5c52dec2" y="126.252812"/>
     </g>
    </g>
    <g id="text_21">
     <!-- indicador -->
     <g transform="translate(181 129.752812)scale(0.1 -0.1)">
      <use xlink:href="#DejaVuSans-105"/>
      <use x="27.783203" xlink:href="#DejaVuSans-110"/>
      <use x="91.162109" xlink:href="#DejaVuSans-100"/>
      <use x="154.638672" xlink:href="#DejaVuSans-105"/>
      <use x="182.421875" xlink:href="#DejaVuSans-99"/>
      <use x="237.402344" xlink:href="#DejaVuSans-97"/>
      <use x="298.681641" xlink:href="#DejaVuSans-100"/>
      <use x="362.158203" xlink:href="#DejaVuSans-111"/>
      <use x="423.339844" xlink:href="#DejaVuSans-114"/>
     </g>
    </g>
    <g id="line2d_35">
     <path d="M 153 140.930937 
L 173 140.930937 
" style="fill:none;stroke:#008000;stroke-linecap:square;stroke-width:1.5;"/>
    </g>
    <g id="line2d_36">
     <g>
      <use style="fill:#008000;stroke:#008000;" x="163" xlink:href="#m4c5c52dec2" y="140.930937"/>
     </g>
    </g>
    <g id="text_22">
     <!-- previsao -->
     <g transform="translate(181 144.430937)scale(0.1 -0.1)">
      <defs>
       <path d="M 44.28125 53.078125 
L 44.28125 44.578125 
Q 40.484375 46.53125 36.375 47.5 
Q 32.28125 48.484375 27.875 48.484375 
Q 21.1875 48.484375 17.84375 46.4375 
Q 14.5 44.390625 14.5 40.28125 
Q 14.5 37.15625 16.890625 35.375 
Q 19.28125 33.59375 26.515625 31.984375 
L 29.59375 31.296875 
Q 39.15625 29.25 43.1875 25.515625 
Q 47.21875 21.78125 47.21875 15.09375 
Q 47.21875 7.46875 41.1875 3.015625 
Q 35.15625 -1.421875 24.609375 -1.421875 
Q 20.21875 -1.421875 15.453125 -0.5625 
Q 10.6875 0.296875 5.421875 2 
L 5.421875 11.28125 
Q 10.40625 8.6875 15.234375 7.390625 
Q 20.0625 6.109375 24.8125 6.109375 
Q 31.15625 6.109375 34.5625 8.28125 
Q 37.984375 10.453125 37.984375 14.40625 
Q 37.984375 18.0625 35.515625 20.015625 
Q 33.0625 21.96875 24.703125 23.78125 
L 21.578125 24.515625 
Q 13.234375 26.265625 9.515625 29.90625 
Q 5.8125 33.546875 5.8125 39.890625 
Q 5.8125 47.609375 11.28125 51.796875 
Q 16.75 56 26.8125 56 
Q 31.78125 56 36.171875 55.265625 
Q 40.578125 54.546875 44.28125 53.078125 
z
" id="DejaVuSans-115"/>
      </defs>
      <use xlink:href="#DejaVuSans-112"/>
      <use x="63.476562" xlink:href="#DejaVuSans-114"/>
      <use x="102.339844" xlink:href="#DejaVuSans-101"/>
      <use x="163.863281" xlink:href="#DejaVuSans-118"/>
      <use x="223.042969" xlink:href="#DejaVuSans-105"/>
      <use x="250.826172" xlink:href="#DejaVuSans-115"/>
      <use x="302.925781" xlink:href="#DejaVuSans-97"/>
      <use x="364.205078" xlink:href="#DejaVuSans-111"/>
     </g>
    </g>
    <g id="line2d_37">
     <path d="M 153 155.609062 
L 173 155.609062 
" style="fill:none;stroke:#008000;stroke-linecap:square;stroke-width:1.5;"/>
    </g>
    <g id="line2d_38">
     <g>
      <use style="fill:#008000;stroke:#008000;" x="163" xlink:href="#m4c5c52dec2" y="155.609062"/>
     </g>
    </g>
    <g id="text_23">
     <!-- prognostico -->
     <g transform="translate(181 159.109062)scale(0.1 -0.1)">
      <defs>
       <path d="M 45.40625 27.984375 
Q 45.40625 37.75 41.375 43.109375 
Q 37.359375 48.484375 30.078125 48.484375 
Q 22.859375 48.484375 18.828125 43.109375 
Q 14.796875 37.75 14.796875 27.984375 
Q 14.796875 18.265625 18.828125 12.890625 
Q 22.859375 7.515625 30.078125 7.515625 
Q 37.359375 7.515625 41.375 12.890625 
Q 45.40625 18.265625 45.40625 27.984375 
z
M 54.390625 6.78125 
Q 54.390625 -7.171875 48.1875 -13.984375 
Q 42 -20.796875 29.203125 -20.796875 
Q 24.46875 -20.796875 20.265625 -20.09375 
Q 16.0625 -19.390625 12.109375 -17.921875 
L 12.109375 -9.1875 
Q 16.0625 -11.328125 19.921875 -12.34375 
Q 23.78125 -13.375 27.78125 -13.375 
Q 36.625 -13.375 41.015625 -8.765625 
Q 45.40625 -4.15625 45.40625 5.171875 
L 45.40625 9.625 
Q 42.625 4.78125 38.28125 2.390625 
Q 33.9375 0 27.875 0 
Q 17.828125 0 11.671875 7.65625 
Q 5.515625 15.328125 5.515625 27.984375 
Q 5.515625 40.671875 11.671875 48.328125 
Q 17.828125 56 27.875 56 
Q 33.9375 56 38.28125 53.609375 
Q 42.625 51.21875 45.40625 46.390625 
L 45.40625 54.6875 
L 54.390625 54.6875 
z
" id="DejaVuSans-103"/>
      </defs>
      <use xlink:href="#DejaVuSans-112"/>
      <use x="63.476562" xlink:href="#DejaVuSans-114"/>
      <use x="102.339844" xlink:href="#DejaVuSans-111"/>
      <use x="163.521484" xlink:href="#DejaVuSans-103"/>
      <use x="226.998047" xlink:href="#DejaVuSans-110"/>
      <use x="290.376953" xlink:href="#DejaVuSans-111"/>
      <use x="351.558594" xlink:href="#DejaVuSans-115"/>
      <use x="403.658203" xlink:href="#DejaVuSans-116"/>
      <use x="442.867188" xlink:href="#DejaVuSans-105"/>
      <use x="470.650391" xlink:href="#DejaVuSans-99"/>
      <use x="525.630859" xlink:href="#DejaVuSans-111"/>
     </g>
    </g>
    <g id="line2d_39">
     <path d="M 153 170.287187 
L 173 170.287187 
" style="fill:none;stroke:#ff0000;stroke-linecap:square;stroke-width:1.5;"/>
    </g>
    <g id="line2d_40">
     <g>
      <use style="fill:#ff0000;stroke:#ff0000;" x="163" xlink:href="#m44c2ef3dc5" y="170.287187"/>
     </g>
    </g>
    <g id="text_24">
     <!-- innovation -->
     <g transform="translate(181 173.787187)scale(0.1 -0.1)">
      <use xlink:href="#DejaVuSans-105"/>
      <use x="27.783203" xlink:href="#DejaVuSans-110"/>
      <use x="91.162109" xlink:href="#DejaVuSans-110"/>
      <use x="154.541016" xlink:href="#DejaVuSans-111"/>
      <use x="215.722656" xlink:href="#DejaVuSans-118"/>
      <use x="274.902344" xlink:href="#DejaVuSans-97"/>
      <use x="336.181641" xlink:href="#DejaVuSans-116"/>
      <use x="375.390625" xlink:href="#DejaVuSans-105"/>
      <use x="403.173828" xlink:href="#DejaVuSans-111"/>
      <use x="464.355469" xlink:href="#DejaVuSans-110"/>
     </g>
    </g>
    <g id="line2d_41">
     <path d="M 153 184.965312 
L 173 184.965312 
" style="fill:none;stroke:#ff0000;stroke-linecap:square;stroke-width:1.5;"/>
    </g>
    <g id="line2d_42">
     <g>
      <use style="fill:#ff0000;stroke:#ff0000;" x="163" xlink:href="#m44c2ef3dc5" y="184.965312"/>
     </g>
    </g>
    <g id="text_25">
     <!-- forecast -->
     <g transform="translate(181 188.465312)scale(0.1 -0.1)">
      <defs>
       <path d="M 37.109375 75.984375 
L 37.109375 68.5 
L 28.515625 68.5 
Q 23.6875 68.5 21.796875 66.546875 
Q 19.921875 64.59375 19.921875 59.515625 
L 19.921875 54.6875 
L 34.71875 54.6875 
L 34.71875 47.703125 
L 19.921875 47.703125 
L 19.921875 0 
L 10.890625 0 
L 10.890625 47.703125 
L 2.296875 47.703125 
L 2.296875 54.6875 
L 10.890625 54.6875 
L 10.890625 58.5 
Q 10.890625 67.625 15.140625 71.796875 
Q 19.390625 75.984375 28.609375 75.984375 
z
" id="DejaVuSans-102"/>
      </defs>
      <use xlink:href="#DejaVuSans-102"/>
      <use x="35.205078" xlink:href="#DejaVuSans-111"/>
      <use x="96.386719" xlink:href="#DejaVuSans-114"/>
      <use x="135.25" xlink:href="#DejaVuSans-101"/>
      <use x="196.773438" xlink:href="#DejaVuSans-99"/>
      <use x="251.753906" xlink:href="#DejaVuSans-97"/>
      <use x="313.033203" xlink:href="#DejaVuSans-115"/>
      <use x="365.132812" xlink:href="#DejaVuSans-116"/>
     </g>
    </g>
    <g id="line2d_43">
     <path d="M 153 199.643437 
L 173 199.643437 
" style="fill:none;stroke:#ff0000;stroke-linecap:square;stroke-width:1.5;"/>
    </g>
    <g id="line2d_44">
     <g>
      <use style="fill:#ff0000;stroke:#ff0000;" x="163" xlink:href="#m44c2ef3dc5" y="199.643437"/>
     </g>
    </g>
    <g id="text_26">
     <!-- prediction -->
     <g transform="translate(181 203.143437)scale(0.1 -0.1)">
      <use xlink:href="#DejaVuSans-112"/>
      <use x="63.476562" xlink:href="#DejaVuSans-114"/>
      <use x="102.339844" xlink:href="#DejaVuSans-101"/>
      <use x="163.863281" xlink:href="#DejaVuSans-100"/>
      <use x="227.339844" xlink:href="#DejaVuSans-105"/>
      <use x="255.123047" xlink:href="#DejaVuSans-99"/>
      <use x="310.103516" xlink:href="#DejaVuSans-116"/>
      <use x="349.3125" xlink:href="#DejaVuSans-105"/>
      <use x="377.095703" xlink:href="#DejaVuSans-111"/>
      <use x="438.277344" xlink:href="#DejaVuSans-110"/>
     </g>
    </g>
    <g id="line2d_45">
     <path d="M 153 214.321562 
L 173 214.321562 
" style="fill:none;stroke:#ff0000;stroke-linecap:square;stroke-width:1.5;"/>
    </g>
    <g id="line2d_46">
     <g>
      <use style="fill:#ff0000;stroke:#ff0000;" x="163" xlink:href="#m44c2ef3dc5" y="214.321562"/>
     </g>
    </g>
    <g id="text_27">
     <!-- trend -->
     <g transform="translate(181 217.821562)scale(0.1 -0.1)">
      <use xlink:href="#DejaVuSans-116"/>
      <use x="39.208984" xlink:href="#DejaVuSans-114"/>
      <use x="78.072266" xlink:href="#DejaVuSans-101"/>
      <use x="139.595703" xlink:href="#DejaVuSans-110"/>
      <use x="202.974609" xlink:href="#DejaVuSans-100"/>
     </g>
    </g>
    <g id="line2d_47">
     <path d="M 153 228.999687 
L 173 228.999687 
" style="fill:none;stroke:#ff0000;stroke-linecap:square;stroke-width:1.5;"/>
    </g>
    <g id="line2d_48">
     <g>
      <use style="fill:#ff0000;stroke:#ff0000;" x="163" xlink:href="#m44c2ef3dc5" y="228.999687"/>
     </g>
    </g>
    <g id="text_28">
     <!-- indicator -->
     <g transform="translate(181 232.499687)scale(0.1 -0.1)">
      <use xlink:href="#DejaVuSans-105"/>
      <use x="27.783203" xlink:href="#DejaVuSans-110"/>
      <use x="91.162109" xlink:href="#DejaVuSans-100"/>
      <use x="154.638672" xlink:href="#DejaVuSans-105"/>
      <use x="182.421875" xlink:href="#DejaVuSans-99"/>
      <use x="237.402344" xlink:href="#DejaVuSans-97"/>
      <use x="298.681641" xlink:href="#DejaVuSans-116"/>
      <use x="337.890625" xlink:href="#DejaVuSans-111"/>
      <use x="399.072266" xlink:href="#DejaVuSans-114"/>
     </g>
    </g>
    <g id="line2d_49">
     <path d="M 153 243.677812 
L 173 243.677812 
" style="fill:none;stroke:#ff0000;stroke-linecap:square;stroke-width:1.5;"/>
    </g>
    <g id="line2d_50">
     <g>
      <use style="fill:#ff0000;stroke:#ff0000;" x="163" xlink:href="#m44c2ef3dc5" y="243.677812"/>
     </g>
    </g>
    <g id="text_29">
     <!-- prognosis -->
     <g transform="translate(181 247.177812)scale(0.1 -0.1)">
      <use xlink:href="#DejaVuSans-112"/>
      <use x="63.476562" xlink:href="#DejaVuSans-114"/>
      <use x="102.339844" xlink:href="#DejaVuSans-111"/>
      <use x="163.521484" xlink:href="#DejaVuSans-103"/>
      <use x="226.998047" xlink:href="#DejaVuSans-110"/>
      <use x="290.376953" xlink:href="#DejaVuSans-111"/>
      <use x="351.558594" xlink:href="#DejaVuSans-115"/>
      <use x="403.658203" xlink:href="#DejaVuSans-105"/>
      <use x="431.441406" xlink:href="#DejaVuSans-115"/>
     </g>
    </g>
   </g>
  </g>
 </g>
 <defs>
  <clipPath id="pd422177aee">
   <rect height="434.88" width="892.8" x="144" y="69.12"/>
  </clipPath>
 </defs>
</svg>
